<svg aria-label="Best Practice" xmlns="http://www.w3.org/2000/svg" viewBox="0 0 299 68"><g fill="#000"><path d="M49.922 51.613c-.276-.69-.921-.875-1.566-.829-.874.046-1.795.138-2.624.368-2.9.875-5.295 2.578-7.274 4.88a.88.88 0 0 1-.645.322c-.736.092-1.52.092-2.256.184-2.026.276-4.097.46-6.123.875-2.256.46-4.328 1.427-5.801 3.36-1.013 1.335-1.52 2.716-.875 4.373.322.829.92 1.335 1.796 1.473-.23-.138-.46-.23-.645-.368-.967-.782-1.29-1.795-1.013-3.038.23-.967.829-1.795 1.52-2.44 1.196-1.15 2.67-1.795 4.281-2.163 2.624-.599 5.295-.737 7.965-.783.092 0 .138 0 .276.046a27.78 27.78 0 0 0-1.105 1.841c-1.15 1.98-2.302 3.96-2.854 6.169-.092.414-.23.828-.276 1.289-.046.322.092.644.414.69.645.092.967-.506 1.013-.644.69-1.335 1.381-2.716 2.118-4.051.875-1.611 1.795-3.222 2.716-4.88.276-.46.645-.598 1.151-.598 2.026-.184 3.96-.506 5.801-1.427 1.428-.69 2.717-1.52 3.637-2.854.369-.553.645-1.105.369-1.795zm-1.335.828a.35.35 0 0 1-.093.184c-.736.921-1.703 1.52-2.716 1.98-1.473.69-2.992 1.197-4.604 1.38h-.368c.46-.46.829-.874 1.243-1.242 1.15-.967 2.302-1.842 3.683-2.348a2.28 2.28 0 0 1 .599-.184c.506-.138 1.058-.23 1.611-.322.184 0 .46-.092.599.092a.44.44 0 0 1 .092.46h-.046z"/><path d="M33.531 59.945a.942.942 0 0 0 0-.506c0-.092-.092-.138-.138-.138-.138 0-.368 0-.506.092-.184.138-.276.368-.415.552-.414.783-.828 1.565-1.197 2.348a77.005 77.005 0 0 0-1.197 2.9c-.138.322-.276.737.184.92.415.185.553-.23.691-.506.783-1.427 1.611-2.854 2.118-4.373.138-.414.276-.828.46-1.289zM25.06 44.892c1.473-.553 2.716-1.52 3.821-2.578.553-.553.553-.506.875.138.184.368.414.69.92.737.507 0 .968-.139 1.198-.599.138-.23.23-.506.322-.782.323-1.06-.184-2.302-1.15-2.9-.876-.553-2.027-.369-2.855.414-.184.184-.415.368-.553.598-1.197 1.381-2.67 2.164-4.512 2.164-1.381 0-2.624-.46-3.775-1.105-1.98-1.059-3.683-2.578-5.203-4.281-2.163-2.394-3.913-5.064-5.386-7.918-1.428-2.762-2.67-5.662-3.591-8.654-.553-1.611-1.013-4.511-2.072-9.483.184.645 3.59 4.511 5.156 6.03a78.625 78.625 0 0 0 5.065 4.512c1.335 1.105 2.808 2.025 4.281 2.992 2.487 1.657 5.157 2.946 7.873 4.005 2.993 1.197 6.078 2.071 9.3 2.486 1.934.276 3.868.184 5.848-.046h.092c.184-.139.138-.415-.046-.507h-1.566c-1.335-.092-2.716-.092-4.051-.322-2.21-.368-4.328-1.105-6.4-1.933a48.452 48.452 0 0 1-6.261-2.9c-1.566-.875-3.177-1.796-4.65-2.809-1.796-1.242-3.546-2.531-5.203-3.912-1.565-1.335-2.993-2.762-4.42-4.235-1.98-2.026-3.775-4.235-5.249-6.63A3.59 3.59 0 0 1 2.27 5.35c-.046-1.289 0-2.577.322-3.82.184-.645-.184-1.29-.69-1.473C1.349-.13.75.148.474.838c-.23.69-.414 1.473-.46 2.21-.092 1.519.322 2.946.967 4.28.506.968.69 1.98.644 3.085 0 .69 0 1.335.092 2.025.185 3.913.83 7.734 1.888 11.509 1.013 3.59 2.486 6.997 4.282 10.22 1.657 2.945 3.545 5.707 6.17 7.917 1.335 1.15 2.808 2.21 4.511 2.808 2.164.782 4.374.92 6.63.138l-.138-.138zM90.161 25.328c-.138-.92-.92-1.519-2.118-1.703-1.887-.322-3.729.046-5.479.645a11.286 11.286 0 0 0-4.19 2.44c-1.61 1.519-2.163 3.498-2.485 5.57v.23c0 .092 0 .138.046.23.092 0 .184-.046.276-.138a.35.35 0 0 0 .092-.184c.092-.139.138-.323.184-.46.415-1.198.967-2.256 1.796-3.177 1.98-2.072 4.42-3.268 7.182-3.867.507-.092 1.013-.184 1.52-.184 1.933 0 2.394.598 1.519 1.933-1.151 1.658-2.717 2.947-4.42 4.005-3.223 2.072-6.814 3.269-10.682 3.407-2.9.138-5.709-.369-8.517-.967a56.643 56.643 0 0 0-4.88-.736c-.599-.093-1.243.046-1.98.138.23-.737.322-1.52.645-2.21.322-.736.828-1.427 1.289-2.071a.845.845 0 0 1 .46-.323c.414-.092.599-.368.46-.736-.69-1.75-1.841-3.084-3.729-3.499-1.75-.414-3.499-.184-5.202.277-3.361.92-6.078 2.9-8.564 5.247-1.703 1.611-3.177 3.407-4.604 5.248-2.118 2.762-4.052 5.662-5.94 8.608-2.07 3.315-4.143 6.629-6.445 9.76-1.473 2.025-3.084 3.912-4.972 5.57-.46.367-.921.736-1.565.736-.415 0-.553-.23-.369-.645.046-.138.138-.276.184-.368-.322.184-.598.414-.506.783.092.368.414.506.783.506.276 0 .598 0 .828-.138 1.105-.415 1.934-1.197 2.763-1.98a45.035 45.035 0 0 0 5.709-6.49c2.026-2.808 4.051-5.616 6.031-8.47 2.072-2.992 4.144-5.939 6.492-8.7 1.933-2.302 4.005-4.42 6.445-6.169 1.98-1.381 4.098-2.44 6.492-2.762 1.98-.276 3.73.092 4.88 1.933.184.277.184.46 0 .737-.782 1.013-1.565 2.025-1.887 3.36-.69 2.9-1.934 5.524-3.914 7.826-1.473 1.75-3.177 3.222-4.972 4.603-2.302 1.703-4.65 3.36-7.136 4.696-1.474.782-2.947 1.565-4.42 2.255-.737.322-1.612.507-2.394.69-.783.185-1.06.6-.875 1.29.138.552.783.782 1.427.552.369-.138.783-.276 1.197-.46l1.013-.46s.092 0 .138-.047c1.105-.46 2.21-.874 3.315-1.38 2.44-1.151 4.742-2.578 6.814-4.282a45.742 45.742 0 0 0 5.479-5.294c1.842-2.117 3.453-4.419 4.42-7.135.276-.736.322-.736 1.105-.782h.368c2.256 0 4.42.598 6.584 1.15 1.841.461 3.683.967 5.57 1.151 4.098.46 7.966-.184 11.649-2.071 2.624-1.335 4.926-3.084 6.584-5.57.414-.644.782-1.335.598-2.164l-.092.046z"/><path d="M60.465 37.158h10.543c5.8 0 8.932 3.084 8.932 7.458 0 4.373-2.164 5.938-4.65 6.628 2.163.599 5.754 2.716 5.754 7.504 0 4.787-4.557 8.746-9.806 8.746H60.51v-30.29l-.047-.046zm9.76 13.028c5.249 0 7.228-1.934 7.228-5.432 0-3.499-2.071-5.386-6.307-5.386h-8.38v10.864h7.505l-.046-.046zm-7.458 15.098h8.517c3.96 0 7.32-1.979 7.32-6.444s-2.486-6.49-8.563-6.49h-7.274v12.934zM88.089 56.86c0 5.57 2.854 9.023 6.998 9.023s5.433-2.302 6.215-4.051h2.21c-.921 2.854-3.223 6.076-8.517 6.076-5.295 0-9.116-5.662-9.116-11.14 0-5.478 3.084-11.508 9.392-11.508s8.794 5.754 8.794 9.805v1.795H88.089zm13.72-1.887c0-4.281-2.394-7.642-6.63-7.642s-6.492 3.13-6.952 7.642h13.582zM110.28 61.464c.737 2.808 2.717 4.511 6.124 4.511 3.407 0 5.386-1.795 5.386-4.188 0-2.394-1.059-3.683-5.893-4.834-5.571-1.335-6.952-3.038-6.952-5.892 0-2.854 2.256-5.754 7.136-5.754 4.881 0 7.229 2.992 7.551 6.076h-2.164c-.368-1.795-1.796-4.05-5.479-4.05s-4.834 1.84-4.834 3.59c0 1.749 1.059 2.992 5.341 4.005 6.077 1.473 7.596 3.452 7.596 6.72 0 3.269-3.222 6.353-7.734 6.353-4.512 0-7.689-2.578-8.288-6.49h2.21v-.047zM126.532 45.812h4.006v-6.767h2.164v6.767h5.156v2.025h-5.156v14.04c0 2.44.506 3.821 2.578 3.821s1.565 0 2.256-.276v1.887c-.737.322-1.796.368-2.67.368-2.763 0-4.328-1.38-4.328-4.833V47.791h-4.006v-2.025.046zM155.124 37.158h10.819c5.525 0 9.346 3.084 9.346 8.424s-3.775 8.654-9.668 8.654h-8.149v13.212h-2.394v-30.29h.046zm2.348 14.915h8.333c4.88 0 6.906-2.578 6.906-6.399 0-3.82-2.67-6.352-6.768-6.352h-8.517v12.75h.046zM180.354 51.705v-5.892h2.117c0 .69.093 2.072.093 4.834 1.243-3.223 4.005-5.202 7.504-5.34v2.347c-4.512.323-7.504 3.407-7.504 8.563v11.231H180.4V51.705h-.046zM208.898 63.305c0 1.887.185 3.406.323 4.097h-2.072c-.184-.507-.322-1.473-.368-3.315-.737 1.611-2.625 3.867-7.091 3.867s-7.182-3.222-7.182-6.49c0-4.742 3.683-6.906 10.175-6.906h4.098v-2.21c0-2.163-.645-5.063-5.571-5.063-4.927 0-5.019 2.302-5.479 4.051h-2.164c.276-2.394 1.75-6.076 7.689-6.076s7.688 2.071 7.688 6.813v11.186l-.046.046zm-2.117-6.905h-4.236c-4.788 0-7.781 1.243-7.781 4.971 0 3.729 1.934 4.604 4.972 4.604 6.17 0 7.045-4.097 7.045-8.793V56.4zM232.379 61.096c-1.059 3.82-3.545 6.859-8.38 6.859-4.834 0-9.254-4.005-9.254-11.232 0-7.227 3.177-11.416 9.531-11.416 6.353 0 7.734 3.912 8.149 6.905h-2.21c-.645-2.486-2.302-4.88-5.985-4.88-3.684 0-7.183 3.913-7.183 9.299 0 5.386 2.441 9.298 6.952 9.298 4.512 0 5.065-1.61 6.17-4.833h2.21zM235.141 45.812h4.006v-6.767h2.164v6.767h5.156v2.025h-5.156v14.04c0 2.44.506 3.821 2.578 3.821s1.565 0 2.256-.276v1.887c-.737.322-1.796.368-2.67.368-2.763 0-4.328-1.38-4.328-4.833V47.791h-4.006v-2.025.046zM251.302 39h2.163v3.36h-2.163V39zm0 6.813h2.163v21.635h-2.163V45.813zM276.9 61.096c-1.059 3.82-3.545 6.859-8.379 6.859-4.835 0-9.255-4.005-9.255-11.232 0-7.227 3.177-11.416 9.531-11.416 6.353 0 7.735 3.912 8.149 6.905h-2.21c-.645-2.486-2.302-4.88-5.985-4.88-3.683 0-7.183 3.913-7.183 9.299 0 5.386 2.441 9.298 6.953 9.298 4.512 0 5.064-1.61 6.169-4.833h2.21zM283.024 56.86c0 5.57 2.854 9.023 6.998 9.023s5.433-2.302 6.215-4.051h2.21c-.92 2.854-3.222 6.076-8.517 6.076s-9.116-5.662-9.116-11.14c0-5.478 3.085-11.508 9.392-11.508 6.308 0 8.794 5.754 8.794 9.805v1.795h-15.976zm13.72-1.887c0-4.281-2.394-7.642-6.63-7.642s-6.492 3.13-6.952 7.642h13.582z"/></g></svg>
